<svg id="Layer_1" data-name="Layer 1" xmlns="http://www.w3.org/2000/svg" viewBox="0 0 73 71.36"><defs><style>.cls-1{fill:none;}.cls-2{fill:#000;}</style></defs><title>Github_icon</title><path class="cls-1" d="M40,7.32A33.5,33.5,0,0,0,29,72.46a1.39,1.39,0,0,0,.8.09.49.49,0,0,0,.06-.11l0-4.82c-4.35.51-6.71-.48-7.24-.74a7.67,7.67,0,0,1-4.32-4.37,11.79,11.79,0,0,0-2.87-4.31,7,7,0,0,1-1.92-1.47A2.27,2.27,0,0,1,13,54.26l.18-.37.34-.23c2.29-1.55,5.08-.12,5.39,0,2.22,1.08,4,4,4.45,4.7a5.9,5.9,0,0,0,6.79,1.46A10.62,10.62,0,0,1,31,57.42c-3.78-.72-10.54-2.85-12.93-9.07-.14-.29-4.1-9.19.08-16.88l.1-.16,1.46-2c-.42-1.71-1.17-6,.67-9.69l.26-.53.55-.21c.55-.21,3.59-1,10.32,3.33a34,34,0,0,1,17,.06,19,19,0,0,1,9.82-3.57l1,0,.42.9a15.1,15.1,0,0,1,.77,9.71,12.69,12.69,0,0,1,1.93,3.15c.5,1,3.48,7.47-.94,17.3-.08.2-2.47,6.06-12.33,7.74a7.54,7.54,0,0,1,1,3.58c0,.37.18,9.53.19,11.46a1.05,1.05,0,0,0,.07.2l.1,0A33.5,33.5,0,0,0,40,7.32Z" transform="translate(-3.5 -4.32)"/><path class="cls-2" d="M76.5,40.82a36.5,36.5,0,1,0-49,34.31l.27.1.33.12h0a3.88,3.88,0,0,0,3.14-.19,3.26,3.26,0,0,0,1.55-2.46v-.07L32.75,64,31,64.39c-4.77.93-7.1-.2-7.11-.2l-.15-.07a4.62,4.62,0,0,1-2.67-2.58L21,61.38a16.72,16.72,0,0,0-2.72-4.48A13,13,0,0,1,20.8,60l.15.21c3.63,4.39,8.92,3.23,11.22,2l.66-.35.11-.74a5.87,5.87,0,0,1,1.6-3.65L38,55l-4.24-.24c-.1,0-10.29-.67-12.95-7.58,0-.08-3.48-7.86-.09-14.21L23,29.83l-.23-.72s-1.27-4.05,0-7.43c1,.06,3.46.57,7.71,3.4l.61.4.69-.23a31,31,0,0,1,16.67.08l.76.21.61-.5a16.83,16.83,0,0,1,7.6-3.28,11.49,11.49,0,0,1,0,7.3l-.32.86.63.67a10.91,10.91,0,0,1,1.94,2.94l.1.21c.13.23,3,5.74-1,14.77-.09.22-2.37,5.42-12.42,6.25L42.89,55l2.53,2.32A5.71,5.71,0,0,1,47.13,61c0,.1.19,9.88.19,11.53v.13a3.48,3.48,0,0,0,1.46,2.55,2.81,2.81,0,0,0,1.52.43,3.81,3.81,0,0,0,1-.15v0l.33-.11.08,0h0A36.4,36.4,0,0,0,76.5,40.82Zm-26,31.82-.1,0a1.05,1.05,0,0,1-.07-.2c0-1.93-.18-11.09-.19-11.46a7.54,7.54,0,0,0-1-3.58c9.85-1.68,12.25-7.54,12.33-7.74,4.41-9.82,1.44-16.32.94-17.3a12.69,12.69,0,0,0-1.93-3.15,15.1,15.1,0,0,0-.77-9.71l-.42-.9-1,0a19,19,0,0,0-9.82,3.57,34,34,0,0,0-17-.06c-6.74-4.31-9.77-3.54-10.32-3.33l-.55.21-.26.53c-1.84,3.68-1.09,8-.67,9.69l-1.46,2-.1.16c-4.18,7.69-.22,16.59-.08,16.88,2.39,6.21,9.15,8.35,12.93,9.07a10.62,10.62,0,0,0-.84,2.45,5.9,5.9,0,0,1-6.79-1.46c-.42-.71-2.24-3.63-4.45-4.7-.31-.17-3.1-1.6-5.39,0l-.34.23-.18.37a2.27,2.27,0,0,0,.46,2.47,7,7,0,0,0,1.92,1.47,11.79,11.79,0,0,1,2.87,4.31,7.67,7.67,0,0,0,4.32,4.37c.53.26,2.9,1.25,7.24.74l0,4.82a.49.49,0,0,1-.06.11,1.39,1.39,0,0,1-.8-.09,33.5,33.5,0,1,1,21.51.19Z" transform="translate(-3.5 -4.32)"/></svg>