<svg id="Layer_1" data-name="Layer 1" xmlns="http://www.w3.org/2000/svg" viewBox="0 0 69.71 56.97"><defs><style>.cls-1{fill:#000;}</style></defs><title>Twitter_icon</title><path class="cls-1" d="M39.38,30.06A43.49,43.49,0,0,1,10,15.25s-6.75,9.19,3.94,18.88c0,0-4-.44-6-1.81,0,0-.83,11.63,11.1,14.25,0,0-.31.75-6.06.38a14.14,14.14,0,0,0,12.94,10,27.51,27.51,0,0,1-20.75,6S29,79.83,54,59c0,0,15-11.83,13.83-32.5,0,0,5.33-3.58,7-7.08,0,0-6.25,2-8,2,0,0,5.75-4.12,6.08-7.92,0,0-7.79,3.42-9,3.58,0,0-8.83-10-20.42-.67A15,15,0,0,0,39.38,30.06Z" transform="translate(-5.13 -12.43)"/></svg>